# xmcd CD database file
#
# Track frame offsets:
#	150
#	31312
#	52122
#	67657
#	84985
#	105942
#	125980
#	139035
#	148282
#	158382
#	180790
#	203755
#
# Disc length: 2995 seconds
#
# Revision: 1
# Processed by: cddbd v1.4PL0 Copyright (c) Steve Scherf et al.
# Submitted via: CDex 1.50
#
DISCID=980bb10c
DTITLE=Ben Andrews - Stones In My Passway
DYEAR=1999
DGENRE=Blues
TTITLE0=Ride 'Til I Die
TTITLE1=Stones In My Passway
TTITLE2=Monday Morning Blues
TTITLE3=Baby Please Don't Go
TTITLE4=Come On In My Kitchen
TTITLE5=Spiritual Medley
TTITLE6=Lazy Dog
TTITLE7=Don't Sell It, Don't Give It Away
TTITLE8=Struttin' Rag
TTITLE9=Travellin' Man
TTITLE10=Savannah Woman
TTITLE11=Easy Rider
EXTD=YEAR: 1999
EXTT0=
EXTT1=
EXTT2=
EXTT3=
EXTT4=
EXTT5=
EXTT6=
EXTT7=
EXTT8=
EXTT9=
EXTT10=
EXTT11=
PLAYORDER=
